<svg xmlns="http://www.w3.org/2000/svg" xmlns:xlink="http://www.w3.org/1999/xlink" width="140" height="140" viewBox="0 0 140 140"><defs><path id="lraga" d="M590 1660v-140h140v140zm4.996-70c0 35.9 29.103 65.004 65.004 65.004 35.9 0 65.004-29.103 65.004-65.004 0-35.9-29.103-65.004-65.004-65.004-35.9 0-65.004 29.103-65.004 65.004z"/><path id="lragb" d="M660 1524.996c35.9 0 65.004 29.103 65.004 65.004 0 35.9-29.103 65.004-65.004 65.004-35.9 0-65.004-29.103-65.004-65.004 0-35.9 29.103-65.004 65.004-65.004z"/><path id="lragd" d="M660 1530c33.137 0 60 26.863 60 60s-26.863 60-60 60-60-26.863-60-60 26.863-60 60-60z"/><path id="lrage" d="M684.83 1569.092l-4.18-4.18-11.445 11.445 4.18 4.18zm5.312 1.758l-50.234 50.234c-.469.469-1.094.703-1.758.703-.664 0-1.289-.234-1.758-.703l-7.734-7.735c-.469-.468-.703-1.093-.703-1.757 0-.664.234-1.29.703-1.758l50.234-50.235c.47-.468 1.094-.703 1.758-.703.664 0 1.29.235 1.758.703l7.734 7.735c.47.469.703 1.093.703 1.758 0 .664-.234 1.289-.703 1.758zm-48.242-8.009l-3.828 1.173-1.172 3.828-1.172-3.828-3.828-1.173 3.828-1.171 1.172-3.828 1.172 3.828zm17.5 7.5l-7.656 2.344-2.344 7.657-2.344-7.657-7.656-2.343 7.656-2.344 2.344-7.656 2.344 7.656zm32.5 17.5l-3.828 1.172-1.172 3.829-1.172-3.829-3.828-1.171 3.828-1.172 1.172-3.828 1.172 3.828zm-25-25l-3.828 1.173-1.172 3.828-1.172-3.828-3.828-1.173 3.828-1.171 1.172-3.828 1.172 3.828z"/><clipPath id="lragc"><use fill="#fff" xlink:href="#lraga"/></clipPath></defs><g><g transform="translate(-590 -1520)"><use fill="#fff" xlink:href="#lragb"/><use fill="#fff" fill-opacity="0" stroke="#fff" stroke-linecap="round" stroke-linejoin="round" stroke-miterlimit="50" stroke-width="10" clip-path="url(&quot;#lragc&quot;)" xlink:href="#lragb"/></g><g transform="translate(-590 -1520)"><use fill="#fff" xlink:href="#lragd"/></g><g transform="translate(-590 -1520)"><use fill="#c8535a" xlink:href="#lrage"/></g></g></svg>